<svg
        xmlns="http://www.w3.org/2000/svg"
        height="30px"
        viewBox="1 -20 511.999 511"
        width="30px"
      >
        <path
          d="m496.433594 218.683594c4.5-4.316406 8.253906-9.539063 10.992187-15.515625 1.726563-3.765625.074219-8.21875-3.691406-9.941407-3.765625-1.730468-8.21875-.074218-9.945313 3.691407-5.792968 12.640625-17.992187 20.496093-31.832031 20.496093h-411.910156c-25.589844 0-42.460937-26.546874-31.765625-49.734374 42.652344-92.441407 135.960938-152.175782 237.71875-152.175782s195.066406 59.734375 237.699219 152.136719c.0625.148437.121093.296875.1875.445313 1.683593 3.785156 6.113281 5.476562 9.898437 3.796874 3.785156-1.683593 5.484375-6.125 3.804688-9.910156-.074219-.183594-.152344-.363281-.25-.578125-71.40625-154.765625-262.683594-207.261719-402.382813-116.054687-43.769531 28.574218-78.449219 68.707031-100.296875 116.054687-9.152344 19.835938-4.390625 42.644531 10.953125 57.273438-9.074219 3.121093-15.613281 11.738281-15.613281 21.855469v18.550781c0 7.417969 3.515625 14.023437 8.960938 18.253906-5.496094 5.808594-8.8789068 13.636719-8.8789068 22.246094s3.3828128 16.4375 8.8789068 22.242187c-5.445313 4.230469-8.960938 10.839844-8.960938 18.253906 0 7.394532 3.496094 13.984376 8.914062 18.214844-5.515624 5.8125-8.914062 13.65625-8.914062 22.28125 0 8.988282 3.679688 17.128906 9.613281 23.003906-6.382812 5.082032-10.082031 12.898438-9.464843 21.425782 1.875 26.054687 23.792968 46.46875 49.898437 46.46875h188.453125c4.140625 0 7.5-3.359375 7.5-7.503906 0-4.140626-3.359375-7.5-7.5-7.5h-188.453125c-20.402344 0-33.785156-16.546876-34.9375-32.539063-.433594-6.046875 4.609375-10.964844 10.515625-10.964844h460.75c5.910156 0 10.949219 4.921875 10.519531 10.964844-1.152343 15.992187-14.535156 32.539063-34.941406 32.539063h-188.453125c-4.144531 0-7.5 3.359374-7.5 7.5 0 4.144531 3.355469 7.503906 7.5 7.503906h188.453125c26.105469 0 48.023437-20.414063 49.898437-46.46875.617188-8.539063-3.09375-16.351563-9.464843-21.429688 5.929687-5.871094 9.613281-14.011718 9.613281-23 0-8.644531-3.414062-16.5-8.949219-22.316406 5.394531-4.234375 8.867188-10.804688 8.867188-18.179688 0-7.394531-3.496094-13.984374-8.914063-18.214843 5.519532-5.8125 8.914063-13.65625 8.914063-22.28125 0-8.609375-3.382813-16.4375-8.878907-22.246094 5.445313-4.230469 8.960938-10.835937 8.960938-18.253906v-18.550781c0-10.101563-6.519531-18.707032-15.566406-21.839844zm-481.433594 21.839844c0-4.472657 3.640625-8.109376 8.113281-8.109376h465.773438c4.472656 0 8.113281 3.636719 8.113281 8.109376v18.550781c0 4.472656-3.640625 8.109375-8.113281 8.109375-20.101563 0-446.164063 0-465.773438 0-4.472656 0-8.113281-3.636719-8.113281-8.109375zm473.808594 91.4375c4.472656 0 8.109375 3.636718 8.109375 8.109374 0 4.472657-3.636719 8.109376-8.109375 8.109376-9.816406 0-78.777344 0-88.160156 0l15.632812-16.21875zm-465.695313 16.21875c-4.472656 0-8.113281-3.636719-8.113281-8.109376 0-4.472656 3.640625-8.109374 8.113281-8.109374h276.066407l15.628906 16.21875c-4.199219 0-286.746094 0-291.695313 0zm228.101563-65.992188c22.839844 23.699219 15.5 16.082031 33.507812 34.773438h-252.253906c-9.585938 0-17.386719-7.800782-17.386719-17.386719 0-9.589844 7.800781-17.386719 17.386719-17.386719zm20.832031 0h171.363281c-18.210937 18.898438-62.488281 64.847656-80.085937 83.109375-3.0625 3.175781-8.132813 3.171875-11.191407 0-30.457031-31.609375-48.640624-50.480469-80.085937-83.109375zm158.6875 34.773438 33.511719-34.773438h15.285156c9.589844 0 17.386719 7.796875 17.386719 17.386719 0 9.585937-7.796875 17.386719-17.386719 17.386719zm-398.347656 80.992187c-9.585938 0-17.386719-7.796875-17.386719-17.386719 0-9.585937 7.800781-17.386718 17.386719-17.386718h296.878906l12.066406 12.527343c8.972657 9.304688 23.832031 9.296875 32.792969 0l12.070312-12.527343h93.417969c9.585938 0 17.386719 7.800781 17.386719 17.386718 0 9.589844-7.800781 17.386719-17.386719 17.386719zm0 0"
          style="fill: rgb(255, 255, 255);"
        />
        <path
          d="m113.792969 119.410156v2.238282c0 10.058593 8.183593 18.242187 18.242187 18.242187s18.242188-8.183594 18.242188-18.242187v-2.238282c0-10.058594-8.183594-18.242187-18.242188-18.242187s-18.242187 8.183593-18.242187 18.242187zm21.484375 0v2.238282c0 1.789062-1.453125 3.242187-3.242188 3.242187-1.785156 0-3.238281-1.453125-3.238281-3.242187v-2.238282c0-1.789062 1.453125-3.242187 3.238281-3.242187 1.789063 0 3.242188 1.453125 3.242188 3.242187zm0 0"
          style="fill: rgb(255, 255, 255);"
        />
        <path
          d="m191.984375 119.410156v2.238282c0 10.058593 8.183594 18.242187 18.242187 18.242187 10.054688 0 18.238282-8.183594 18.238282-18.242187v-2.238282c0-10.058594-8.183594-18.242187-18.238282-18.242187-10.058593 0-18.242187 8.183593-18.242187 18.242187zm21.480469 0v2.238282c0 1.789062-1.453125 3.242187-3.238282 3.242187-1.789062 0-3.242187-1.453125-3.242187-3.242187v-2.238282c0-1.789062 1.453125-3.242187 3.242187-3.242187 1.785157 0 3.238282 1.453125 3.238282 3.242187zm0 0"
          style="fill: rgb(255, 255, 255);"
        />
        <path
          d="m270.171875 119.410156v2.238282c0 10.058593 8.183594 18.242187 18.238281 18.242187 10.058594 0 18.242188-8.183594 18.242188-18.242187v-2.238282c0-10.058594-8.183594-18.242187-18.242188-18.242187-10.054687 0-18.238281 8.183593-18.238281 18.242187zm21.480469 0v2.238282c0 1.789062-1.453125 3.242187-3.238282 3.242187-1.789062 0-3.242187-1.453125-3.242187-3.242187v-2.238282c0-1.789062 1.453125-3.242187 3.242187-3.242187 1.785157 0 3.238282 1.453125 3.238282 3.242187zm0 0"
          style="fill: rgb(255, 255, 255);"
        />
        <path
          d="m348.359375 119.410156v2.238282c0 10.058593 8.183594 18.242187 18.242187 18.242187 10.054688 0 18.238282-8.183594 18.238282-18.242187v-2.238282c0-10.058594-8.183594-18.242187-18.238282-18.242187-10.058593 0-18.242187 8.183593-18.242187 18.242187zm21.480469 0v2.238282c0 1.789062-1.453125 3.242187-3.238282 3.242187-1.789062 0-3.242187-1.453125-3.242187-3.242187v-2.238282c0-1.789062 1.453125-3.242187 3.242187-3.242187 1.785157 0 3.238282 1.453125 3.238282 3.242187zm0 0"
          style="fill: rgb(255, 255, 255);"
        />
        <path
          d="m152.890625 74.390625v2.238281c0 10.058594 8.183594 18.242188 18.238281 18.242188 10.058594 0 18.242188-8.183594 18.242188-18.242188v-2.238281c0-10.058594-8.183594-18.242187-18.242188-18.242187-10.054687 0-18.238281 8.183593-18.238281 18.242187zm21.480469 0v2.238281c0 1.789063-1.453125 3.242188-3.242188 3.242188-1.785156 0-3.238281-1.453125-3.238281-3.242188v-2.238281c0-1.789063 1.453125-3.242187 3.238281-3.242187 1.789063 0 3.242188 1.453124 3.242188 3.242187zm0 0"
          style="fill: rgb(255, 255, 255);"
        />
        <path
          d="m231.078125 74.390625v2.238281c0 10.058594 8.183594 18.242188 18.238281 18.242188 10.058594 0 18.242188-8.183594 18.242188-18.242188v-2.238281c0-10.058594-8.183594-18.242187-18.242188-18.242187-10.054687 0-18.238281 8.183593-18.238281 18.242187zm21.480469 0v2.238281c0 1.789063-1.453125 3.242188-3.238282 3.242188-1.789062 0-3.242187-1.453125-3.242187-3.242188v-2.238281c0-1.789063 1.453125-3.242187 3.242187-3.242187 1.785157 0 3.238282 1.453124 3.238282 3.242187zm0 0"
          style="fill: rgb(255, 255, 255);"
        />
        <path
          d="m309.265625 74.390625v2.238281c0 10.058594 8.183594 18.242188 18.238281 18.242188 10.058594 0 18.242188-8.183594 18.242188-18.242188v-2.238281c0-10.058594-8.183594-18.242187-18.242188-18.242187-10.054687 0-18.238281 8.183593-18.238281 18.242187zm21.480469 0v2.238281c0 1.789063-1.453125 3.242188-3.238282 3.242188-1.789062 0-3.242187-1.453125-3.242187-3.242188v-2.238281c0-1.789063 1.453125-3.242187 3.242187-3.242187 1.785157 0 3.238282 1.453124 3.238282 3.242187zm0 0"
          style="fill: rgb(255, 255, 255);"
        />
      </svg>